# xmcd
#
# Track frame offsets: 
#        150
#        16367
#        30838
#        44393
#        59208
#        76207
#        96290
#        110469
#        129218
#        145346
#        164295
#        178733
#
# Disc length: 2558 seconds
#
# Revision: 0
# Processed by: cddbd v1.5.2PL0 Copyright (c) Steve Scherf et al.
# Submitted via: ExactAudioCopy v0.99pb4
#
DISCID=9a09fc0c
DTITLE=Bart Kaëll - Hallo, Hier Ben Ik
DYEAR=2011
DGENRE=Chanson
TTITLE0=Het Is Nog Niet Voorbij
TTITLE1=Hallo Goeie Morgen !
TTITLE2=Mee Met De Wind
TTITLE3=Elke Dag Een Beetje Mooier
TTITLE4=Donna Klara
TTITLE5=Ik Zou 't Weer Zo Doen
TTITLE6=Beetje Gek
TTITLE7=Mooie Dag
TTITLE8=Sorry, Zeg Kan Ik Mee Met Jou
TTITLE9=Zo Ver Weg
TTITLE10=Nooit Meer Een Ander
TTITLE11=Donder En Bliksem
EXTD=
EXTT0=
EXTT1=
EXTT2=
EXTT3=
EXTT4=
EXTT5=
EXTT6=
EXTT7=
EXTT8=
EXTT9=
EXTT10=
EXTT11=
PLAYORDER=
